HIERARCHY
ROOT Hips
{
	OFFSET 0.00000 0.00000 0.00000
	CHANNELS 6 Xposition Yposition Zposition Zrotation Yrotation Xrotation 
	JOINT LHipJoint
	{
		OFFSET 0 0 0
		CHANNELS 3 Zrotation Yrotation Xrotation
		JOINT LeftUpLeg
		{
			OFFSET 1.34019 -1.87553 0.90315
			CHANNELS 3 Zrotation Yrotation Xrotation
			JOINT LeftLeg
			{
				OFFSET 2.55316 -7.01474 0.00000
				CHANNELS 3 Zrotation Yrotation Xrotation
				JOINT LeftFoot
				{
					OFFSET 2.64657 -7.27139 0.00000
					CHANNELS 3 Zrotation Yrotation Xrotation
					JOINT LeftToeBase
					{
						OFFSET 0.24207 -0.66507 2.14489
						CHANNELS 3 Zrotation Yrotation Xrotation
						End Site
						{
							OFFSET 0.00000 -0.00000 1.12451
						}
					}
				}
			}
		}
	}
	JOINT RHipJoint
	{
		OFFSET 0 0 0
		CHANNELS 3 Zrotation Yrotation Xrotation
		JOINT RightUpLeg
		{
			OFFSET -1.28320 -1.87553 0.90315
			CHANNELS 3 Zrotation Yrotation Xrotation
			JOINT RightLeg
			{
				OFFSET -2.60484 -7.15674 0.00000
				CHANNELS 3 Zrotation Yrotation Xrotation
				JOINT RightFoot
				{
					OFFSET -2.60296 -7.15159 0.00000
					CHANNELS 3 Zrotation Yrotation Xrotation
					JOINT RightToeBase
					{
						OFFSET -0.31082 -0.85398 2.28998
						CHANNELS 3 Zrotation Yrotation Xrotation
						End Site
						{
							OFFSET -0.00000 -0.00000 1.21611
						}
					}
				}
			}
		}
	}
	JOINT LowerBack
	{
		OFFSET 0 0 0
		CHANNELS 3 Zrotation Yrotation Xrotation
		JOINT Spine
		{
			OFFSET -0.00160 2.05581 -0.15156
			CHANNELS 3 Zrotation Yrotation Xrotation
			JOINT Spine1
			{
				OFFSET 0.04594 2.06326 -0.01617
				CHANNELS 3 Zrotation Yrotation Xrotation
				JOINT Neck
				{
					OFFSET 0 0 0
					CHANNELS 3 Zrotation Yrotation Xrotation
					JOINT Neck1
					{
						OFFSET 0.03753 1.73883 0.26751
						CHANNELS 3 Zrotation Yrotation Xrotation
						JOINT Head
						{
							OFFSET -0.09795 1.76129 -0.31794
							CHANNELS 3 Zrotation Yrotation Xrotation
							End Site
							{
								OFFSET -0.03611 1.79987 -0.13846
							}
						}
					}
				}
				JOINT LeftShoulder
				{
					OFFSET 0 0 0
					CHANNELS 3 Zrotation Yrotation Xrotation
					JOINT LeftArm
					{
						OFFSET 3.30667 1.29205 -0.22445
						CHANNELS 3 Zrotation Yrotation Xrotation
						JOINT LeftForeArm
						{
							OFFSET 4.92785 -0.00000 -0.00000
							CHANNELS 3 Zrotation Yrotation Xrotation
							JOINT LeftHand
							{
								OFFSET 3.44052 -0.00000 0.00000
								CHANNELS 3 Zrotation Yrotation Xrotation
								JOINT LeftFingerBase
								{
									OFFSET 0 0 0
									CHANNELS 3 Zrotation Yrotation Xrotation
									JOINT LeftHandIndex1
									{
										OFFSET 0.65433 -0.00000 0.00000
										CHANNELS 3 Zrotation Yrotation Xrotation
										End Site
										{
											OFFSET 0.52753 -0.00000 0.00000
										}
									}
								}
								JOINT LThumb
								{
									OFFSET 0 0 0
									CHANNELS 3 Zrotation Yrotation Xrotation
									End Site
									{
										OFFSET 0.53559 -0.00000 0.53559
									}
								}
							}
						}
					}
				}
				JOINT RightShoulder
				{
					OFFSET 0 0 0
					CHANNELS 3 Zrotation Yrotation Xrotation
					JOINT RightArm
					{
						OFFSET -3.20032 1.49783 -0.27688
						CHANNELS 3 Zrotation Yrotation Xrotation
						JOINT RightForeArm
						{
							OFFSET -5.09181 -0.00000 -0.00000
							CHANNELS 3 Zrotation Yrotation Xrotation
							JOINT RightHand
							{
								OFFSET -3.49865 -0.00000 -0.00000
								CHANNELS 3 Zrotation Yrotation Xrotation
								JOINT RightFingerBase
								{
									OFFSET 0 0 0
									CHANNELS 3 Zrotation Yrotation Xrotation
									JOINT RightHandIndex1
									{
										OFFSET -0.66641 -0.00000 0.00000
										CHANNELS 3 Zrotation Yrotation Xrotation
										End Site
										{
											OFFSET -0.53728 -0.00000 0.00000
										}
									}
								}
								JOINT RThumb
								{
									OFFSET 0 0 0
									CHANNELS 3 Zrotation Yrotation Xrotation
									End Site
									{
										OFFSET -0.54548 -0.00000 0.54548
									}
								}
							}
						}
					}
				}
			}
		}
	}
}
MOTION
Frames: 6
Frame Time: .0083333
-1.2205 17.8133 -29.7325 0 0 0 0 0 0 -21 0 0 0 0 0 0 0 0 0 0 0 0 0 0 21 0 0 0 0 0 0 0 0 0 0 0 0 0 0 0 0 0 0 0 0 0 0 -16 0 0 21 0 0 11 0 0 0 -8 0 0 0 0 0 0 0 0 0 0 0 0 0 0 0 0 0 0 0 0 8 0 0 0 0 0 0 0 0 0 0 0 0 0 0 0 0 0
-1.2205 17.8133 -29.7325 5.3412 52.7846 5.2309 0.0000 0.0000 0.0000 -18.8740 -12.9772 -13.0921 1.9610 8.7844 25.1232 -0.9413 -19.3524 -2.9913 1.0465 -6.5054 -18.2581 0.0000 0.0000 0.0000 16.1136 -16.8404 -5.3982 -2.2099 -9.2902 26.7073 2.0748 -32.8396 -36.2943 -0.0311 -1.1391 3.1316 1.7549 5.8531 2.5406 1.7557 7.8804 0.2460 0.5503 3.9350 -1.1737 21.2454 17.8322 0.7579 -22.0324 27.5967 11.1536 -7.1621 13.5026 9.5531 -0.0000 -0.0000 0.0000 -86.3614 7.4489 54.7181 18.8302 -29.2071 -4.9477 -0.0000 0.0000 -25.7773 -11.9503 11.6048 -2.4379 -7.1250 0.0000 -0.0000 -33.1034 39.2439 5.4118 -0.0000 -0.0000 0.0000 81.4019 -3.3896 19.4500 -10.8547 18.0652 -1.7306 0.0000 -0.0000 -4.7400 -13.1018 1.9187 -0.4465 7.1250 -0.0000 -0.0000 10.3761 -27.9559 4.3672
-1.2180 17.8132 -29.7383 5.2867 52.6124 5.1752 0.0000 0.0000 0.0000 -18.8496 -12.8974 -13.0926 1.9612 8.7847 25.1242 -0.9333 -19.2945 -3.0180 0.8431 -5.8569 -16.3699 0.0000 0.0000 0.0000 16.0934 -16.7250 -5.3862 -2.2112 -9.2927 26.7153 2.0878 -32.8325 -36.2084 -0.0300 -1.1173 3.0715 1.7076 5.7032 2.5845 1.8741 7.6812 0.3271 0.7018 3.8370 -1.1374 20.9273 17.9739 0.9422 -22.2611 27.7890 10.6783 -7.1706 13.5997 9.3964 0.0000 0.0000 0.0000 -86.6105 7.5469 54.5712 19.1465 -29.6003 -5.1030 -0.0000 0.0000 -27.0740 -12.2617 12.4926 -2.6916 -7.1250 0.0000 -0.0000 -33.7222 39.9740 4.8312 0.0000 0.0000 0.0000 81.7275 -1.9082 17.2777 -10.0262 16.7805 -1.4825 0.0000 -0.0000 -2.5106 -13.6589 2.1785 -0.5293 7.1250 -0.0000 -0.0000 9.9277 -27.6926 4.2357
-1.2118 17.8137 -29.7400 5.2530 52.2837 5.2041 0.0000 0.0000 0.0000 -18.8181 -12.6658 -13.1916 1.9609 8.7841 25.1224 -0.9289 -19.2726 -3.0512 0.6518 -5.1641 -14.3771 0.0000 0.0000 0.0000 16.0520 -16.5677 -5.4396 -2.2153 -9.3007 26.7407 2.0899 -32.7443 -36.0240 -0.0292 -1.1032 3.0328 1.5377 5.5498 2.4161 2.0060 7.4674 0.4304 0.9582 3.7332 -0.9763 20.7386 18.1447 1.2884 -22.6374 28.0563 10.0930 -7.2408 13.7485 9.2390 -0.0000 -0.0000 0.0000 -86.9752 7.5965 54.0889 19.4119 -29.9272 -5.2347 -0.0000 0.0000 -28.1997 -12.5991 13.5780 -3.0037 -7.1250 0.0000 -0.0000 -34.4676 40.8644 4.0800 -0.0000 -0.0000 0.0000 82.0802 -0.4213 14.9409 -9.1863 15.4569 -1.2493 0.0000 0.0000 1.1231 -13.2178 2.1296 -0.5001 7.1250 -0.0000 -0.0000 10.2684 -27.7428 4.3731
-1.2089 17.8142 -29.7464 5.2859 52.1909 5.2441 0.0000 0.0000 0.0000 -18.8559 -12.5635 -13.2373 1.9611 8.7845 25.1235 -0.9313 -19.3051 -3.0707 0.5996 -4.9569 -13.7857 0.0000 0.0000 0.0000 15.9858 -16.5525 -5.4797 -2.2183 -9.3067 26.7595 2.1000 -32.7149 -35.9090 -0.0287 -1.0937 3.0065 1.4330 5.4984 2.4457 2.0443 7.3985 0.4093 1.0507 3.6991 -1.0321 20.5739 18.1423 1.6085 -22.6226 28.0042 9.6857 -7.2640 13.7547 9.0057 -0.0000 0.0000 0.0000 -87.1109 7.7461 53.9530 19.5145 -30.0530 -5.2861 -0.0000 0.0000 -28.6347 -12.6615 13.8805 -3.0849 -7.1250 0.0000 -0.0000 -34.6555 41.1146 3.8574 -0.0000 0.0000 0.0000 81.8906 -1.0528 15.5957 -9.5283 15.9983 -1.3420 0.0000 0.0000 0.2685 -13.6071 2.2226 -0.5378 7.1250 -0.0000 -0.0000 9.9634 -27.6481 4.2620
-1.2052 17.8150 -29.7512 5.2743 52.0151 5.2585 0.0000 0.0000 0.0000 -18.8549 -12.4346 -13.2897 1.9607 8.7838 25.1212 -0.9296 -19.2983 -3.0874 0.4428 -4.2697 -11.8366 0.0000 0.0000 0.0000 15.9469 -16.4612 -5.5123 -2.2215 -9.3130 26.7795 2.1060 -32.6769 -35.8001 -0.0283 -1.0853 2.9836 1.3342 5.4097 2.4198 2.1106 7.2775 0.4441 1.1798 3.6397 -1.0017 20.3304 18.2221 1.8421 -22.6581 28.0558 9.2264 -7.2606 13.8002 8.7928 -0.0000 -0.0000 0.0000 -87.3337 7.8133 53.6428 19.6445 -30.2116 -5.3513 -0.0000 0.0000 -29.2533 -12.7553 14.4592 -3.2351 -7.1250 0.0000 -0.0000 -35.0003 41.5949 3.4194 -0.0000 -0.0000 0.0000 81.9047 -0.8463 15.0616 -9.4320 15.8462 -1.3156 0.0000 0.0000 1.0139 -13.6636 2.2681 -0.5512 7.1250 -0.0000 -0.0000 9.9164 -27.6019 4.2524
